<svg width="19" height="19" viewBox="0 0 19 19" fill="none" xmlns="http://www.w3.org/2000/svg">
<path d="M0.322034 19C0.166569 19 0.0666277 18.9613 0.0222092 18.884C-0.0222092 18.8066 0 18.7099 0.0888369 18.5939L7.11806 9.22443L0.521917 0.406107C0.455289 0.290077 0.43308 0.193385 0.455289 0.116031C0.499708 0.0386769 0.599649 0 0.755114 0H4.61952C4.79719 0 4.94155 0.0676848 5.0526 0.203054L8.11748 4.43817C8.36178 4.78626 8.60608 5.15369 8.85038 5.54046C9.11689 5.92723 9.36119 6.30433 9.58329 6.67176H9.6166C9.8609 6.28499 10.1163 5.88855 10.3828 5.48244C10.6493 5.057 10.9158 4.67023 11.1824 4.32214L14.114 0.203054C14.225 0.0676848 14.3805 0 14.5804 0H18.3115C18.467 0 18.5558 0.0386769 18.578 0.116031C18.6224 0.193385 18.6113 0.290077 18.5447 0.406107L11.9819 9.25344L18.9112 18.5939C19 18.7099 19.0222 18.8066 18.9778 18.884C18.9334 18.9613 18.8334 19 18.678 19H14.8136C14.6137 19 14.4582 18.9323 14.3472 18.7969L11.1157 14.3008C10.8492 13.9527 10.5716 13.5659 10.2829 13.1405C10.0164 12.6957 9.76096 12.2702 9.51666 11.8641H9.45003C9.20573 12.2509 8.93922 12.657 8.6505 13.0824C8.38399 13.5079 8.11748 13.8947 7.85096 14.2427L4.58621 18.7679C4.47516 18.9226 4.3197 19 4.11981 19H0.322034Z" fill="#B75048"/>
</svg>
