<svg width="400" height="48" viewBox="0 0 400 48" fill="none" xmlns="http://www.w3.org/2000/svg">
<g filter="url(#filter0_d_252_206)">
<path fill-rule="evenodd" clip-rule="evenodd" d="M349.68 18.1528C349.106 17.9864 348.585 17.6737 348.168 17.2455C347.677 16.7708 347.324 16.1731 347.143 15.515C346.949 14.7884 346.949 14.0238 347.143 13.2972C347.407 12.3861 347.922 11.5679 348.63 10.9366C349.605 10.0372 350.29 8.86714 350.596 7.5763C350.836 6.47941 350.688 5.33303 350.176 4.33362C349.573 3.26327 348.651 2.40841 347.538 1.88901C346.073 1.19403 344.462 0.862626 342.842 0.922929C341.871 0.876949 340.903 1.05541 340.013 1.44443C339.123 1.83345 338.334 2.42254 337.709 3.16592C336.36 4.82373 335.362 6.73876 334.777 8.7944C334.07 11.1719 333.628 13.6201 333.458 16.0946C333.262 18.7045 333.167 21.1267 333.173 23.3613C333.173 26.0159 333.265 28.5697 333.458 31.0059C333.604 33.2117 334.048 35.3876 334.777 37.4745C335.364 39.1864 336.372 40.7232 337.709 41.9436C339.142 43.122 340.964 43.7214 342.817 43.6238C344.797 43.6895 346.753 43.1757 348.445 42.1453C349.872 41.2388 351.101 40.0529 352.057 38.659C352.919 37.4243 353.572 36.0564 353.99 34.6098C354.316 33.5887 354.511 32.53 354.569 31.4595C354.565 31.2213 354.632 30.9872 354.762 30.7875C354.815 30.6982 354.89 30.6241 354.98 30.5726C355.069 30.521 355.171 30.4937 355.275 30.4935C355.424 30.5048 355.563 30.5742 355.661 30.6867C355.816 30.9128 355.885 31.1871 355.854 31.4595C355.814 32.891 355.553 34.3077 355.082 35.6599C354.553 37.2796 353.761 38.8009 352.738 40.1627C351.636 41.6199 350.257 42.8447 348.68 43.7666C346.892 44.788 344.858 45.2994 342.8 45.2451C340.372 45.2775 337.974 44.6998 335.827 43.565C333.786 42.4675 332.024 40.9154 330.678 39.0286C329.208 36.9345 328.13 34.5923 327.494 32.1148C326.743 29.2298 326.375 26.2583 326.402 23.2772C326.375 20.2324 326.657 17.1927 327.242 14.2045C327.738 11.5823 328.694 9.06831 330.064 6.77823C331.318 4.70587 333.064 2.97465 335.147 1.7378C337.497 0.488281 340.14 -0.106515 342.8 0.0156509C344.635 -0.00758159 346.46 0.276363 348.201 0.855723C349.726 1.3485 351.129 2.15877 352.318 3.23313C353.445 4.27388 354.333 5.54634 354.922 6.96305C355.562 8.50959 355.879 10.1704 355.854 11.8439C355.854 14.5489 355.241 16.3887 354.023 17.3799C353.423 17.8641 352.71 18.1888 351.951 18.324C351.191 18.4591 350.41 18.4002 349.68 18.1528ZM74.1447 42.7753C74.266 42.7753 74.3859 42.8016 74.4961 42.8523C74.6063 42.9031 74.7042 42.9771 74.7831 43.0693C74.9448 43.2297 75.0381 43.4465 75.0435 43.6742C75.0536 43.7951 75.0373 43.9168 74.9958 44.0309C74.9543 44.1449 74.8886 44.2487 74.8031 44.3349C74.7177 44.4211 74.6146 44.4878 74.5009 44.5304C74.3873 44.5729 74.2657 44.5904 74.1447 44.5814H65.6515C65.0915 44.5814 64.8115 44.279 64.8115 43.6742C64.818 43.4484 64.9077 43.2329 65.0635 43.0693C65.1333 42.9816 65.2213 42.9099 65.3213 42.8592C65.4213 42.8084 65.5311 42.7798 65.6431 42.7753C66.1556 42.7753 66.416 42.4393 66.416 41.7504C66.4187 41.0846 66.3224 40.4221 66.1304 39.7846C65.8952 38.8269 65.5591 37.634 65.1307 36.2143C64.5706 35.1894 63.8846 34.0553 63.0725 32.812C62.2469 31.5537 61.2986 30.3802 60.2415 29.3089C59.1681 28.2119 57.9465 27.2703 56.6124 26.5115C55.2679 25.7384 53.7593 25.2951 52.2104 25.2178L47.5816 39.751C47.3363 40.2532 47.2913 40.8298 47.4556 41.364C47.5881 41.8122 47.8892 42.1916 48.2956 42.4225C49.0402 42.8005 49.8737 42.969 50.7067 42.9097V42.9685C51.2695 42.9685 51.5467 43.2289 51.5467 43.7414C51.5619 43.8553 51.5507 43.9712 51.5139 44.08C51.477 44.1889 51.4156 44.2878 51.3343 44.369C51.2531 44.4503 51.1542 44.5117 51.0453 44.5486C50.9364 44.5854 50.8206 44.5967 50.7067 44.5814H42.8436C42.7297 44.5967 42.6138 44.5854 42.5049 44.5486C42.3961 44.5117 42.2972 44.4503 42.2159 44.369C42.1346 44.2878 42.0732 44.1889 42.0364 44.08C41.9995 43.9712 41.9883 43.8553 42.0035 43.7414C42.0035 43.2289 42.2807 42.9685 42.8436 42.9685V42.9097C43.3305 42.9227 43.8137 42.822 44.2549 42.6157C44.6303 42.4329 44.9603 42.1689 45.221 41.8428C45.473 41.538 45.6692 41.191 45.8006 40.8179C45.893 40.5469 45.9899 40.285 46.0847 40.0288L46.0848 40.0285L46.085 40.0279L46.0851 40.0278L46.0851 40.0276L46.1322 39.9004L46.1871 39.751L56.2007 8.11392C57.0576 4.98885 57.7017 2.74866 58.1329 1.39334C58.229 1.15868 58.3472 0.933658 58.4857 0.721282C58.6023 0.594617 58.7486 0.499072 58.9114 0.443323C59.0743 0.387575 59.2485 0.373389 59.4182 0.402055C59.8438 0.402055 60.1239 0.519665 60.2583 0.754885C60.3627 0.937622 60.4468 1.10008 60.5225 1.24619L60.5235 1.24814C60.5449 1.28942 60.5656 1.32939 60.5859 1.36814C60.6538 1.59451 60.729 1.84345 60.8116 2.1166L60.8127 2.12017C61.0363 2.86009 61.3135 3.77745 61.6444 4.90484C62.0069 6.14021 62.4071 7.5151 62.849 9.03379L63.1901 10.2057C63.4304 11.0308 63.6763 11.8833 63.9299 12.7621L63.9302 12.763L63.9311 12.7663L63.9325 12.7709L63.9331 12.773L63.9355 12.7816C64.2921 14.0173 64.6636 15.3047 65.0551 16.6406C65.2901 17.4425 65.521 18.2444 65.752 19.047L65.753 19.0505C66.1825 20.5422 66.6127 22.0364 67.0713 23.5376C67.4747 24.8584 67.8562 26.1435 68.2298 27.4023L68.2313 27.4075L68.232 27.4098L68.2329 27.4126L68.2336 27.415L68.2337 27.4155L68.234 27.4164L68.235 27.4199C68.5131 28.3569 68.7869 29.2793 69.0622 30.191C69.2757 30.8981 69.481 31.5814 69.679 32.2404L69.6801 32.2439C70.0814 33.5798 70.4526 34.8153 70.8012 35.9455L70.895 36.2497L70.8953 36.2507L70.8959 36.2525C71.3743 37.8039 71.7731 39.097 72.1201 40.1459C72.3005 40.7944 72.5483 41.4223 72.8594 42.0192C73.2374 42.5401 73.607 42.7921 73.9515 42.7921L74.1447 42.7753ZM52.4708 24.5121C54.5595 24.5302 56.6321 24.879 58.6117 25.5454C59.9119 25.9932 61.1531 26.5969 62.308 27.3432C61.8802 26.0176 61.4407 24.6861 60.9992 23.3488L60.9986 23.3471L60.7371 22.5548C60.2079 20.9502 59.687 19.4129 59.1914 17.9596C58.6957 16.5062 58.2589 15.1369 57.8725 13.902C57.486 12.6671 57.1668 11.5918 56.9064 10.6929L52.4708 24.5121ZM12.2146 0.528041C14.9974 0.430151 17.7606 1.02784 20.2541 2.26699C22.3437 3.37798 24.1159 5.00277 25.4038 6.98819C26.7412 9.12114 27.6567 11.491 28.1004 13.9692C28.6273 16.7664 28.8861 19.6075 28.8733 22.4539C28.8712 25.1646 28.5354 27.8647 27.8736 30.4934C27.2704 33.015 26.2481 35.4174 24.8493 37.6004C23.5297 39.6519 21.76 41.3757 19.6745 42.6408C17.4173 43.9694 14.833 44.6388 12.2146 44.573H1.02489C0.883706 44.583 0.742054 44.5618 0.609953 44.511C0.477853 44.4602 0.358529 44.381 0.260422 44.279C0.0957537 44.1103 0.0024744 43.8846 0 43.6489C0.000754098 43.4079 0.0939697 43.1764 0.260422 43.0021C0.359288 42.9016 0.478952 42.8239 0.611015 42.7746C0.743079 42.7252 0.884342 42.7054 1.02489 42.7164C1.36932 42.7164 1.62134 42.4392 1.76415 41.8764C1.92879 41.2414 2.04949 40.5958 2.12538 39.9442C2.21534 39.0061 2.2574 38.064 2.25139 37.1216V6.44215C2.25343 5.52728 2.17755 4.6139 2.02457 3.71191C1.87336 2.87184 1.54573 2.393 1.02489 2.393C0.884342 2.40405 0.743079 2.38421 0.611015 2.33487C0.478952 2.28553 0.359288 2.20788 0.260422 2.10738C0.0939697 1.93307 0.000754098 1.70154 0 1.46052C0.00879616 1.23359 0.101611 1.01802 0.260422 0.855669C0.355403 0.747573 0.473332 0.66206 0.605593 0.605377C0.737854 0.548694 0.881108 0.522272 1.02489 0.528041H12.2146ZM12.2146 43.5481C13.9081 43.5671 15.5462 42.946 16.8014 41.8092C18.2006 40.5228 19.2967 38.9419 20.0105 37.1804C20.9144 35.0283 21.5411 32.77 21.8755 30.4598C22.2935 27.8119 22.4986 25.1346 22.4887 22.4539C22.505 19.7258 22.3281 17 21.9595 14.2968C21.6532 12.0182 21.0487 9.78976 20.1617 7.66865C19.4728 5.9555 18.3806 4.43391 16.9779 3.23307C15.622 2.14134 13.921 1.56938 12.181 1.62013H8.48473V43.5481H12.2146ZM117.249 35.3827C117.074 35.2223 116.848 35.1299 116.61 35.1223C116.485 35.1054 116.358 35.1168 116.238 35.1558C116.118 35.1948 116.009 35.2603 115.917 35.3475C115.826 35.4346 115.756 35.5412 115.711 35.6593C115.667 35.7774 115.65 35.9039 115.661 36.0295C115.691 36.7335 115.582 37.4364 115.339 38.098C115.097 38.7597 114.727 39.3671 114.25 39.8855C113.249 40.9052 112.032 41.6863 110.688 42.1705C109.217 42.716 107.685 43.0826 106.126 43.2626C104.61 43.4473 103.084 43.5426 101.556 43.5482H97.5072V4.96369C97.5056 4.53354 97.5365 4.10388 97.5996 3.67838C97.6463 3.34516 97.7668 3.02658 97.9524 2.7459C98.0531 2.62309 98.1822 2.52675 98.3287 2.46525C98.4751 2.40376 98.6343 2.37898 98.7925 2.39307C98.9343 2.40423 99.0768 2.38447 99.2103 2.33515C99.3437 2.28584 99.4648 2.20815 99.5653 2.10744C99.7266 1.9305 99.8164 1.69999 99.8174 1.46059C99.8184 1.3399 99.7934 1.2204 99.7441 1.11022C99.6949 1.00005 99.6224 0.901789 99.5317 0.822134C99.4352 0.725134 99.3198 0.648988 99.1926 0.598412C99.0654 0.547836 98.9292 0.523908 98.7925 0.528109H90.0473C89.8909 0.505598 89.7314 0.52394 89.5842 0.581351C89.4369 0.638762 89.3071 0.733287 89.2072 0.855737C89.0863 1.04716 89.0195 1.26781 89.014 1.49419C89.0223 1.7237 89.1151 1.94207 89.2744 2.10744C89.3746 2.20861 89.4957 2.28661 89.6292 2.33596C89.7627 2.3853 89.9054 2.4048 90.0473 2.39307C90.2168 2.37448 90.388 2.40792 90.5381 2.48895C90.6881 2.56998 90.81 2.69476 90.8874 2.84671C91.0785 3.19546 91.2011 3.57756 91.2486 3.9724C91.312 4.46253 91.3317 4.95732 91.3074 5.45093V7.02186V38.659C91.3114 39.5847 91.2384 40.5092 91.089 41.4228C90.9294 42.2881 90.6018 42.7165 90.0893 42.7165C89.9589 42.7037 89.8273 42.7182 89.7028 42.7591C89.5784 42.8001 89.4638 42.8666 89.3665 42.9543C89.2693 43.0421 89.1914 43.1493 89.1379 43.2689C89.0845 43.3885 89.0566 43.518 89.056 43.649C89.0606 43.8868 89.1534 44.1143 89.3165 44.2875C89.4158 44.3901 89.5366 44.4697 89.6702 44.5205C89.8037 44.5713 89.9468 44.5921 90.0893 44.5815H116.325C116.503 44.6033 116.684 44.5819 116.852 44.519C117.02 44.4561 117.171 44.3536 117.291 44.2202C117.471 43.9436 117.559 43.6173 117.543 43.2878V36.0295C117.544 35.9068 117.518 35.7853 117.468 35.6735C117.417 35.5617 117.342 35.4625 117.249 35.3827ZM169.694 42.6492C169.849 42.6269 170.006 42.6428 170.152 42.6955C170.299 42.7483 170.43 42.8362 170.535 42.9517C170.683 43.1407 170.763 43.3748 170.761 43.6153C170.759 43.7399 170.731 43.8627 170.681 43.9767C170.63 44.0906 170.558 44.1933 170.467 44.279C170.372 44.3788 170.258 44.4573 170.13 44.5094C170.003 44.5615 169.866 44.5861 169.728 44.5814H161.017C160.873 44.5928 160.729 44.5715 160.595 44.5191C160.461 44.4667 160.341 44.3846 160.244 44.279C160.08 44.0965 159.987 43.8607 159.983 43.6153C159.981 43.3748 160.061 43.1407 160.21 42.9517C160.315 42.8362 160.446 42.7483 160.592 42.6955C160.739 42.6428 160.896 42.6269 161.05 42.6492C161.223 42.6439 161.39 42.5854 161.528 42.4816C161.667 42.3779 161.769 42.234 161.823 42.0696C162.01 41.6077 162.129 41.1209 162.176 40.6247C162.237 40.0162 162.268 39.4049 162.268 38.7933V8.1811L150.852 43.8421C150.812 44.0543 150.726 44.2551 150.6 44.4302C150.53 44.5988 150.414 44.7442 150.266 44.8498C150.117 44.9553 149.942 45.0166 149.76 45.0267C149.549 45.0376 149.34 44.987 149.158 44.881C148.976 44.7751 148.829 44.6185 148.735 44.4302C148.597 44.2326 148.508 44.0052 148.474 43.7665C148.348 43.3717 148.096 42.5736 147.735 41.3723C147.522 40.663 147.267 39.857 146.984 38.9595L146.981 38.9509L146.981 38.9504L146.981 38.9484L146.98 38.947L146.973 38.9243L146.968 38.9068C146.776 38.2995 146.571 37.6507 146.357 36.962C145.969 35.7114 145.532 34.3644 145.066 32.9273L145.061 32.911C144.884 32.3645 144.702 31.8049 144.518 31.2327C144.259 30.4312 144.002 29.6248 143.744 28.8162L143.744 28.816L143.743 28.8154L143.743 28.8132C143.33 27.521 142.916 26.2234 142.493 24.9321C141.856 22.9898 141.255 21.0474 140.676 19.1782L140.676 19.1775L140.536 18.724C140.103 17.3277 139.695 16.0411 139.323 14.8671L139.319 14.8553L139.306 14.8135C139.149 14.3187 138.999 13.8439 138.855 13.3895C138.59 12.5484 138.34 11.7969 138.12 11.1349L138.12 11.1345C137.935 10.58 137.771 10.0884 137.637 9.65963C137.571 9.44698 137.511 9.25707 137.459 9.09L137.452 9.069L137.452 9.06847L137.452 9.06759L137.451 9.06601C137.277 8.50937 137.184 8.21315 137.184 8.1811V39.751C137.186 40.1102 137.228 40.4681 137.31 40.8179C137.395 41.1735 137.561 41.5044 137.797 41.784C138.071 42.0901 138.409 42.3312 138.788 42.4896C139.322 42.7008 139.895 42.798 140.468 42.7753C140.7 42.7825 140.919 42.8788 141.082 43.0441C141.177 43.1257 141.253 43.2277 141.304 43.3425C141.355 43.4574 141.379 43.5822 141.376 43.7077C141.379 43.8296 141.355 43.9507 141.304 44.0615C141.253 44.1723 141.177 44.2697 141.082 44.3462C140.91 44.4926 140.694 44.5756 140.468 44.5814H132.689C132.566 44.5909 132.442 44.5729 132.326 44.5289C132.211 44.4849 132.106 44.4159 132.02 44.3268C131.934 44.2377 131.869 44.1308 131.83 44.0136C131.79 43.8964 131.776 43.7719 131.79 43.6489C131.794 43.411 131.887 43.1831 132.051 43.0105C132.13 42.9183 132.228 42.8442 132.338 42.7935C132.448 42.7427 132.568 42.7164 132.689 42.7165C134.017 42.7165 134.89 42.3804 135.294 41.7168C135.686 41.1138 135.899 40.4116 135.907 39.6922V4.50999C135.813 4.11453 135.639 3.74272 135.394 3.41789C135.11 3.12095 134.778 2.87389 134.411 2.68703C133.89 2.42914 133.312 2.30774 132.731 2.3342C132.126 2.3342 131.832 2.02337 131.832 1.40172C131.832 0.780068 132.118 0.469242 132.731 0.469242H140.443C140.881 0.449298 141.317 0.547977 141.703 0.754866C142.009 0.920923 142.292 1.12717 142.543 1.36812C142.767 1.63565 142.943 1.93971 143.064 2.267L152.465 33.1984L161.983 2.58622C162.059 2.21777 162.211 1.86897 162.428 1.56133C162.625 1.28087 162.862 1.03165 163.133 0.822072C163.469 0.576314 163.878 0.451889 164.293 0.469242H169.694C170.299 0.469242 170.593 0.780068 170.593 1.40172C170.593 2.02337 170.299 2.3342 169.694 2.3342C169.548 2.32235 169.402 2.35144 169.271 2.41821C169.141 2.48498 169.031 2.58679 168.955 2.71223C168.791 3.02397 168.682 3.36244 168.636 3.71192C168.565 4.15673 168.523 4.60573 168.51 5.05603V6.46735V38.8017C168.508 39.4116 168.55 40.0209 168.636 40.6247C168.699 41.1181 168.817 41.6028 168.989 42.0696C169.03 42.2286 169.12 42.3706 169.247 42.4748C169.374 42.579 169.531 42.6401 169.694 42.6492ZM214.68 3.13227C215.28 2.63322 216.053 2.39164 216.831 2.46021C216.957 2.46018 217.082 2.43404 217.197 2.38344C217.313 2.33284 217.417 2.25888 217.503 2.16619C217.595 2.08049 217.669 1.97654 217.72 1.86089C217.771 1.74524 217.797 1.62037 217.797 1.49413C217.797 1.37279 217.771 1.25289 217.72 1.14267C217.669 1.03246 217.595 0.934547 217.503 0.855676C217.322 0.683893 217.08 0.590334 216.831 0.595254H208.531C208.414 0.592627 208.298 0.614414 208.19 0.659221C208.082 0.704028 207.985 0.770869 207.904 0.85547C207.823 0.940071 207.761 1.04057 207.722 1.15054C207.682 1.26051 207.666 1.37754 207.674 1.49413C207.673 1.74289 207.766 1.98278 207.934 2.16619C208.013 2.2584 208.111 2.33243 208.221 2.38319C208.332 2.43394 208.451 2.46022 208.573 2.46021C208.939 2.43233 209.308 2.47736 209.657 2.59272C210.006 2.70807 210.328 2.89146 210.606 3.13227C211.027 3.54505 211.363 4.03581 211.597 4.5772C211.825 5.23913 211.935 5.93552 211.925 6.63537V32.0392C211.916 33.4271 211.741 34.809 211.404 36.1555C211.081 37.5422 210.512 38.8596 209.724 40.045C208.895 41.2547 207.796 42.2555 206.515 42.9685C204.981 43.7851 203.261 44.1849 201.525 44.1278C200.351 44.2032 199.178 43.9736 198.12 43.4613C197.061 42.949 196.153 42.1715 195.484 41.2043C194.157 39.2554 193.494 36.2003 193.494 32.0392V8.1811V6.44215C193.471 5.81989 193.49 5.19678 193.552 4.5772C193.597 4.05809 193.728 3.55 193.939 3.07347C194.002 2.89937 194.116 2.74806 194.265 2.63883C194.415 2.52961 194.594 2.46743 194.779 2.46021C194.921 2.46973 195.064 2.44838 195.197 2.39764C195.331 2.34689 195.452 2.26794 195.552 2.16619C195.712 1.99225 195.802 1.76454 195.804 1.52773C195.802 1.4062 195.776 1.28622 195.727 1.17504C195.678 1.06386 195.607 0.963788 195.518 0.880878C195.421 0.785794 195.305 0.711462 195.178 0.662371C195.051 0.61328 194.915 0.590448 194.779 0.595254H186.034C185.892 0.583523 185.749 0.603017 185.616 0.652363C185.482 0.701709 185.361 0.779709 185.261 0.880878C185.094 1.05518 185.001 1.28672 185 1.52773C185.001 1.76635 185.094 1.99543 185.261 2.16619C185.36 2.26887 185.481 2.34843 185.615 2.39924C185.748 2.45005 185.891 2.47087 186.034 2.46021C186.219 2.46515 186.399 2.52645 186.549 2.63599C186.699 2.74552 186.812 2.8981 186.874 3.07347C187.083 3.54859 187.203 4.05845 187.227 4.5772C187.26 5.19839 187.26 5.82096 187.227 6.44215V8.1811V32.0056C187.227 35.1754 187.719 37.6396 188.705 39.3982C189.543 41.0002 190.8 42.3446 192.343 43.2877C193.758 44.1217 195.337 44.6377 196.971 44.7998C198.475 44.9667 199.987 45.0537 201.499 45.0603C203.168 45.0943 204.827 44.8091 206.389 44.2202C207.832 43.6598 209.129 42.7811 210.186 41.6496C211.288 40.4636 212.132 39.062 212.664 37.5332C213.256 35.7634 213.54 33.9051 213.504 32.0392L213.378 6.63537C213.359 5.937 213.462 5.24064 213.68 4.5772C213.914 4.03371 214.254 3.54243 214.68 3.13227ZM266.252 0.855701C266.424 1.02183 266.526 1.24709 266.538 1.48576C266.543 1.61066 266.52 1.73505 266.47 1.84986C266.421 1.96467 266.346 2.06701 266.252 2.14941C266.174 2.23387 266.079 2.30132 265.974 2.34756C265.868 2.39381 265.754 2.41786 265.639 2.41824C265.065 2.39686 264.492 2.49705 263.959 2.71226C263.576 2.85641 263.229 3.08296 262.943 3.37592C262.706 3.65384 262.542 3.9856 262.464 4.342C262.375 4.68778 262.329 5.04342 262.329 5.40049V43.9346C262.342 44.0217 262.334 44.1105 262.306 44.194C262.279 44.2775 262.232 44.3535 262.17 44.4162C262.108 44.4788 262.033 44.5262 261.95 44.5549C261.867 44.5836 261.778 44.5927 261.691 44.5814C261.511 44.5514 261.35 44.4556 261.237 44.3126C261.149 44.2163 261.083 44.1016 261.044 43.9766L237.472 8.41635V39.667C237.473 40.0235 237.515 40.3787 237.598 40.7255C237.687 41.0896 237.853 41.4304 238.085 41.7252C238.349 42.0501 238.689 42.3042 239.076 42.4645C239.61 42.6756 240.182 42.7729 240.756 42.7501C240.988 42.7574 241.207 42.8537 241.369 43.0189C241.465 43.1005 241.541 43.2025 241.592 43.3173C241.643 43.4322 241.667 43.557 241.663 43.6826C241.659 43.7982 241.63 43.9116 241.58 44.0157C241.529 44.1198 241.458 44.2123 241.369 44.2874C241.207 44.4527 240.988 44.549 240.756 44.5562H232.977C232.73 44.5562 232.493 44.458 232.318 44.2831C232.143 44.1083 232.045 43.8711 232.045 43.6238C232.045 43.3765 232.143 43.1393 232.318 42.9644C232.493 42.7895 232.73 42.6913 232.977 42.6913C234.304 42.6913 235.178 42.3553 235.581 41.6916C235.974 41.0887 236.187 40.3864 236.195 39.667V6.24896C236.182 5.90391 236.137 5.5608 236.06 5.22408C235.966 4.78196 235.825 4.3511 235.64 3.93877C235.458 3.52661 235.196 3.15522 234.867 2.84667C234.502 2.52691 234.025 2.36395 233.54 2.39303C233.425 2.39266 233.311 2.36861 233.205 2.32236C233.1 2.27612 233.005 2.20867 232.927 2.12421C232.833 2.04181 232.758 1.93947 232.709 1.82466C232.66 1.70985 232.636 1.58545 232.641 1.46055C232.653 1.22188 232.755 0.996627 232.927 0.830499C233.002 0.73991 233.096 0.666171 233.201 0.614069C233.307 0.561968 233.422 0.532668 233.54 0.528073H239.009C239.537 0.514369 240.062 0.617641 240.546 0.830499C240.916 0.99589 241.263 1.2076 241.579 1.46055C241.881 1.73241 242.141 2.0465 242.352 2.39303L261.061 30.6867V5.41729C261.058 4.69431 260.851 3.98682 260.464 3.37592C260.053 2.71226 259.187 2.37623 257.86 2.37623C257.737 2.37746 257.616 2.35177 257.504 2.30098C257.392 2.25018 257.293 2.1755 257.213 2.08221C257.053 1.90741 256.96 1.68088 256.953 1.44375C256.94 1.31745 256.956 1.18993 257 1.07078C257.044 0.951638 257.114 0.84396 257.206 0.755837C257.297 0.667715 257.407 0.60144 257.528 0.561992C257.648 0.522543 257.776 0.510947 257.902 0.528073H265.681C265.794 0.541393 265.902 0.577279 266 0.633579C266.098 0.689879 266.184 0.765431 266.252 0.855701ZM312.481 42.8524C312.371 42.8017 312.251 42.7754 312.129 42.7754L311.919 42.7922C311.575 42.7922 311.214 42.5402 310.827 42.0193C310.519 41.4152 310.271 40.7821 310.088 40.1292C309.718 39.0119 309.281 37.609 308.769 35.9288L307.03 30.1743C306.392 28.0321 305.728 25.8143 305.039 23.5209C304.35 21.2276 303.678 18.9342 303.015 16.6408L302.751 15.7291C302.186 13.7755 301.652 11.9307 301.15 10.2058C300.922 9.4241 300.703 8.67736 300.495 7.96507C300.173 6.8632 299.874 5.84379 299.604 4.90495C299.285 3.7989 299.01 2.89501 298.786 2.16251L298.783 2.15009C298.695 1.8638 298.616 1.60381 298.545 1.36825C298.469 1.20798 298.372 1.02692 298.26 0.818755L298.226 0.754997C298.131 0.625296 298.003 0.52389 297.855 0.461714C297.707 0.399537 297.545 0.378948 297.386 0.402167C297.219 0.376402 297.048 0.392034 296.888 0.447691C296.729 0.503349 296.585 0.597331 296.47 0.721394C296.332 0.93377 296.214 1.15879 296.118 1.39345C295.686 2.74877 295.042 4.98896 294.185 8.11403L284.121 39.7511L283.735 40.818C283.603 41.1911 283.407 41.5381 283.155 41.8429C282.9 42.1707 282.572 42.4352 282.198 42.6158C281.754 42.8231 281.268 42.9238 280.778 42.9098V42.9686C280.215 42.9686 279.938 43.229 279.938 43.7415C279.921 43.8557 279.931 43.9724 279.967 44.0821C280.003 44.1917 280.065 44.2914 280.146 44.3731C280.228 44.4548 280.328 44.5162 280.437 44.5524C280.547 44.5886 280.664 44.5986 280.778 44.5816H288.691C288.806 44.5986 288.922 44.5886 289.032 44.5524C289.142 44.5162 289.241 44.4548 289.323 44.3731C289.405 44.2914 289.466 44.1917 289.502 44.0821C289.538 43.9724 289.548 43.8557 289.531 43.7415C289.531 43.229 289.246 42.9686 288.691 42.9686V42.9098C287.858 42.9712 287.024 42.8027 286.28 42.4226C285.875 42.1904 285.574 41.8115 285.44 41.3641C285.275 40.8293 285.323 40.2513 285.575 39.7511L290.203 25.2179C291.747 25.2965 293.25 25.7399 294.589 26.5116C295.924 27.2724 297.148 28.2137 298.226 29.309C299.284 30.3819 300.235 31.5551 301.066 32.8121C301.878 34.0555 302.564 35.1896 303.124 36.2144C303.552 37.6342 303.888 38.8271 304.123 39.7847C304.315 40.4222 304.412 41.0847 304.409 41.7505C304.409 42.4394 304.157 42.7754 303.645 42.7754C303.532 42.7782 303.422 42.8061 303.322 42.8569C303.221 42.9078 303.134 42.9804 303.065 43.0694C302.903 43.2299 302.81 43.4466 302.805 43.6743C302.805 44.2791 303.082 44.5816 303.645 44.5816H312.129C312.25 44.5905 312.372 44.573 312.486 44.5305C312.599 44.4879 312.702 44.4212 312.788 44.335C312.873 44.2488 312.939 44.1451 312.98 44.031C313.022 43.9169 313.038 43.7952 313.028 43.6743C313.023 43.4466 312.929 43.2299 312.768 43.0694C312.689 42.9772 312.591 42.9032 312.481 42.8524ZM296.596 25.5455C294.617 24.8791 292.544 24.5303 290.455 24.5122L294.899 10.693C295.151 11.5919 295.471 12.6588 295.857 13.9021C296.244 15.1454 296.68 16.5063 297.176 17.9597C297.576 19.1317 297.986 20.3583 298.412 21.6307L298.413 21.632L298.722 22.5549C299.17 23.8919 299.606 25.2231 300.04 26.5484L300.045 26.5612L300.301 27.3433C299.143 26.5972 297.899 25.9935 296.596 25.5455ZM399.354 42.7731C399.222 42.7253 399.081 42.706 398.942 42.7165C398.194 42.7165 397.757 42.2965 397.614 41.4564C397.435 40.5773 397.348 39.682 397.354 38.785V6.32458C397.352 5.42547 397.454 4.52914 397.656 3.65315C397.849 2.81308 398.286 2.39304 398.975 2.39304C399.116 2.4041 399.257 2.38426 399.389 2.33491C399.521 2.28557 399.641 2.20792 399.74 2.10742C399.906 1.93311 399.999 1.70158 400 1.46056C399.997 1.34054 399.97 1.2223 399.921 1.11271C399.872 1.00311 399.802 0.904336 399.714 0.822108C399.617 0.725908 399.502 0.650286 399.375 0.599765C399.248 0.549245 399.112 0.524865 398.975 0.528083H390.23C390.077 0.506857 389.921 0.522454 389.774 0.573584C389.628 0.624715 389.497 0.709907 389.39 0.822108C389.243 1.00238 389.163 1.22795 389.163 1.46056C389.164 1.70158 389.257 1.93311 389.424 2.10742C389.524 2.20859 389.645 2.28659 389.778 2.33593C389.912 2.38528 390.055 2.40477 390.196 2.39304C390.372 2.38838 390.547 2.42378 390.707 2.49655C390.867 2.56932 391.008 2.67756 391.12 2.81308C391.378 3.131 391.556 3.5052 391.641 3.90517C391.748 4.39278 391.824 4.88659 391.868 5.3837C391.927 5.92135 391.927 6.44219 391.927 6.96304V20.2698C390.698 19.6935 389.432 19.1995 388.138 18.7913C386.595 18.3373 385.027 17.9727 383.442 17.6992C381.296 17.3311 379.126 17.115 376.948 17.0523V6.31618C376.948 6.10792 376.962 5.89568 376.977 5.67755C376.992 5.44694 377.007 5.20974 377.007 4.96366C377.045 4.52675 377.133 4.09556 377.268 3.67835C377.372 3.33548 377.547 3.01798 377.78 2.74587C377.887 2.63005 378.017 2.53856 378.162 2.47766C378.307 2.41677 378.463 2.3879 378.62 2.39304C378.762 2.40309 378.904 2.38281 379.037 2.33356C379.171 2.28431 379.292 2.20721 379.393 2.10742C379.554 1.93047 379.644 1.69996 379.645 1.46056C379.646 1.33987 379.621 1.22037 379.572 1.1102C379.523 1.00002 379.45 0.901763 379.359 0.822108C379.262 0.725908 379.147 0.650286 379.02 0.599765C378.893 0.549245 378.757 0.524865 378.62 0.528083H369.875C369.742 0.522125 369.609 0.545353 369.486 0.59614C369.362 0.646927 369.251 0.724048 369.161 0.822108C369 0.996042 368.91 1.22376 368.909 1.46056C368.909 1.69571 368.989 1.92389 369.136 2.10742C369.226 2.21218 369.341 2.29306 369.47 2.34289C369.599 2.39271 369.738 2.40994 369.875 2.39304C370.051 2.38653 370.226 2.42472 370.383 2.50405C370.54 2.58338 370.675 2.70126 370.774 2.84668C371.002 3.18881 371.165 3.57059 371.253 3.97238C371.367 4.45843 371.443 4.95283 371.48 5.45091C371.547 5.98855 371.547 6.5178 371.547 7.03024V38.2053C371.547 38.7178 371.522 39.247 371.48 39.7846C371.444 40.2828 371.368 40.7773 371.253 41.2632C371.168 41.6583 371.005 42.0325 370.774 42.3637C370.668 42.4992 370.531 42.6073 370.375 42.6789C370.218 42.7505 370.047 42.7836 369.875 42.7753C369.738 42.7584 369.599 42.7756 369.47 42.8255C369.341 42.8753 369.226 42.9562 369.136 43.0609C368.989 43.2317 368.909 43.4492 368.909 43.6742C368.909 43.9063 368.999 44.1294 369.161 44.2958C369.252 44.3924 369.363 44.4679 369.487 44.5172C369.61 44.5666 369.742 44.5885 369.875 44.5815H378.637C378.773 44.5863 378.909 44.5634 379.036 44.5143C379.163 44.4652 379.279 44.3909 379.376 44.2958C379.465 44.218 379.536 44.1225 379.585 44.0154C379.634 43.9083 379.661 43.792 379.662 43.6742C379.66 43.4449 379.57 43.2253 379.41 43.0609C379.309 42.9611 379.187 42.884 379.054 42.8348C378.921 42.7855 378.779 42.7653 378.637 42.7753C377.906 42.7753 377.452 42.3637 377.284 41.5236C377.109 40.6427 377.002 39.7496 376.965 38.8522V17.8672C379.958 18.2062 382.832 19.2295 385.366 20.8578C387.249 22.1436 388.784 23.8752 389.835 25.8983C390.797 27.7956 391.398 29.8551 391.608 31.972C391.818 34.1226 391.927 36.1723 391.927 38.1465C391.927 38.3997 391.913 38.6569 391.898 38.9172C391.883 39.1839 391.868 39.4538 391.868 39.7258C391.824 40.2229 391.748 40.7168 391.641 41.2044C391.554 41.6037 391.376 41.9775 391.12 42.2965C391.008 42.432 390.867 42.5402 390.707 42.613C390.547 42.6858 390.372 42.7212 390.196 42.7165C390.059 42.7033 389.92 42.7214 389.791 42.7695C389.661 42.8175 389.544 42.8941 389.449 42.9937C389.303 43.1809 389.226 43.4121 389.23 43.649C389.228 43.889 389.318 44.1207 389.482 44.2958C389.574 44.3924 389.685 44.4679 389.808 44.5172C389.931 44.5666 390.064 44.5885 390.196 44.5815H398.942C399.078 44.5863 399.213 44.5634 399.34 44.5143C399.467 44.4652 399.583 44.3909 399.681 44.2958C399.77 44.2129 399.841 44.1129 399.89 44.0017C399.939 43.8905 399.965 43.7705 399.966 43.649C399.968 43.528 399.947 43.4077 399.902 43.2953C399.857 43.1828 399.791 43.0803 399.706 42.9937C399.605 42.8961 399.485 42.8209 399.354 42.7731Z" fill="url(#paint0_linear_252_206)" style="mix-blend-mode:multiply" shape-rendering="crispEdges"/>
</g>
<defs>
<filter id="filter0_d_252_206" x="0" y="0" width="400" height="47.249" filterUnits="userSpaceOnUse" color-interpolation-filters="sRGB">
<feFlood flood-opacity="0" result="BackgroundImageFix"/>
<feColorMatrix in="SourceAlpha" type="matrix" values="0 0 0 0 0 0 0 0 0 0 0 0 0 0 0 0 0 0 127 0" result="hardAlpha"/>
<feOffset dy="2"/>
<feComposite in2="hardAlpha" operator="out"/>
<feColorMatrix type="matrix" values="0 0 0 0 1 0 0 0 0 1 0 0 0 0 1 0 0 0 1 0"/>
<feBlend mode="normal" in2="BackgroundImageFix" result="effect1_dropShadow_252_206"/>
<feBlend mode="normal" in="SourceGraphic" in2="effect1_dropShadow_252_206" result="shape"/>
</filter>
<linearGradient id="paint0_linear_252_206" x1="0" y1="22.6245" x2="400" y2="22.6245" gradientUnits="userSpaceOnUse">
<stop stop-color="#0FD8ED"/>
<stop offset="0.25" stop-color="#06466F"/>
<stop offset="0.5" stop-color="#063561"/>
<stop offset="0.75" stop-color="#0FD8ED"/>
<stop offset="1" stop-color="#06466F"/>
</linearGradient>
</defs>
</svg>
