<svg width="40" height="40" viewBox="0 0 40 40" fill="none" xmlns="http://www.w3.org/2000/svg">
<path d="M13.7919 35V28.5956H7.22852V5H18.3729C22.159 5.13912 25.6966 6.68433 28.3895 9.38225C31.2166 12.2143 32.7717 15.9854 32.7717 19.995C32.7717 24.0046 31.2166 27.7708 28.3895 30.6078C25.5624 33.4399 21.8112 35 17.8165 35H13.7919ZM15.3372 15.3942C14.8751 15.3991 14.4428 15.583 14.1199 15.9109C13.7969 16.2388 13.618 16.6761 13.618 17.1332L13.7919 28.5906H23.6197V17.0984C23.6197 16.6363 23.4408 16.1991 23.1129 15.8761C22.785 15.5482 22.3527 15.3693 21.8907 15.3693H20.7181L20.2659 12.0205L20.6883 9.32759H16.7532L17.1407 11.9311L16.7284 15.3892H15.3372V15.3942Z" stroke="#1A1A1A" stroke-width="2" stroke-linecap="round" stroke-linejoin="round"/>
</svg>
