<svg width="40" height="40" viewBox="0 0 40 40" fill="none" xmlns="http://www.w3.org/2000/svg">
<path d="M27.5 5H12.5C8.35786 5 5 8.35786 5 12.5V27.5C5 31.6421 8.35786 35 12.5 35H27.5C31.6421 35 35 31.6421 35 27.5V12.5C35 8.35786 31.6421 5 27.5 5Z" stroke="#1A1A1A" stroke-width="2" stroke-linecap="round" stroke-linejoin="round"/>
<path d="M26 19.055C26.1851 20.3034 25.9719 21.5783 25.3906 22.6985C24.8094 23.8187 23.8897 24.7271 22.7624 25.2945C21.6352 25.8619 20.3577 26.0594 19.1117 25.8589C17.8657 25.6584 16.7146 25.0701 15.8223 24.1777C14.9299 23.2854 14.3416 22.1343 14.1411 20.8883C13.9406 19.6423 14.1381 18.3648 14.7055 17.2376C15.2729 16.1103 16.1813 15.1906 17.3015 14.6094C18.4217 14.0281 19.6966 13.8149 20.945 14C22.2184 14.1888 23.3973 14.7822 24.3075 15.6925C25.2178 16.6027 25.8112 17.7816 26 19.055Z" stroke="#1A1A1A" stroke-width="2" stroke-linecap="round" stroke-linejoin="round"/>
<path d="M30.5 11C30.5 11.8284 29.8284 12.5 29 12.5C28.1716 12.5 27.5 11.8284 27.5 11C27.5 10.1716 28.1716 9.5 29 9.5C29.8284 9.5 30.5 10.1716 30.5 11Z" stroke="#1A1A1A" stroke-width="2" stroke-linecap="round" stroke-linejoin="round"/>
</svg>
