<svg width="90" height="23" viewBox="0 0 90 23" fill="none" xmlns="http://www.w3.org/2000/svg">
<path fill-rule="evenodd" clip-rule="evenodd" d="M3.85387 15.2632C3.6818 15.4219 3.5364 15.6072 3.42321 15.812C3.23692 16.1331 3.12708 16.4927 3.10219 16.8631C3.0773 17.2334 3.13803 17.6045 3.27968 17.9476C3.42133 18.2907 3.64009 18.5966 3.91901 18.8415C4.19792 19.0864 4.5295 19.2638 4.88803 19.3599C5.24656 19.4561 5.62239 19.4683 5.98642 19.3958C6.35045 19.3232 6.69289 19.1678 6.98717 18.9416C7.28146 18.7154 7.5197 18.4244 7.68342 18.0913C7.84714 17.7582 7.93194 17.3918 7.93125 17.0206C7.93125 15.7981 6.25723 13.7768 4.59016 11.7485C2.63829 9.38682 0.686432 7.02514 0.686432 4.94824C0.673122 4.19538 0.834839 3.44972 1.15885 2.77002C1.48286 2.09032 1.9603 1.49517 2.55354 1.03145C3.14679 0.567735 3.83963 0.248134 4.57746 0.0978407C5.31528 -0.0524524 6.07793 -0.0293329 6.8053 0.165377C7.53266 0.360087 8.20486 0.721069 8.76892 1.21987C9.33299 1.71867 9.77352 2.34165 10.0558 3.03973C10.338 3.73781 10.4543 4.4919 10.3954 5.24257C10.3365 5.99324 10.1041 6.71997 9.71641 7.3655C9.44191 7.84396 9.0871 8.2716 8.66753 8.6297L7.22275 6.68478C7.38633 6.53238 7.52675 6.35687 7.63952 6.16382C7.84779 5.79496 7.95781 5.37878 7.95904 4.95519C7.97663 4.62731 7.92725 4.29929 7.81389 3.99114C7.70054 3.68298 7.52559 3.40114 7.29972 3.16283C7.07385 2.92451 6.80179 2.73471 6.50015 2.605C6.19851 2.4753 5.8736 2.4084 5.54525 2.4084C5.2169 2.4084 4.89201 2.4753 4.59037 2.605C4.28873 2.73471 4.01667 2.92451 3.7908 3.16283C3.56493 3.40114 3.38998 3.68298 3.27663 3.99114C3.16327 4.29929 3.11387 4.62731 3.13146 4.95519C3.13146 6.17771 4.79853 8.20597 6.47255 10.2273C8.42442 12.589 10.3693 14.9507 10.3693 17.0276C10.3827 17.7804 10.2209 18.5261 9.89693 19.2058C9.57292 19.8855 9.09546 20.4806 8.50221 20.9444C7.90897 21.4081 7.21614 21.7277 6.47832 21.878C5.74049 22.0283 4.97785 22.0051 4.25048 21.8104C3.52312 21.6157 2.85091 21.2547 2.28684 20.7559C1.72278 20.2571 1.28227 19.6342 1.00002 18.9361C0.717781 18.238 0.601512 17.4839 0.660401 16.7332C0.719289 15.9826 0.951724 15.2558 1.33937 14.6103C1.61973 14.1219 1.98421 13.6868 2.41601 13.3253L3.85387 15.2632Z" fill="#222222"/>
<path fill-rule="evenodd" clip-rule="evenodd" d="M20.7336 7.24741C21.0926 7.12344 21.4199 6.92185 21.6921 6.65698C21.9734 6.37592 22.1809 6.02984 22.2964 5.64939C22.4119 5.26894 22.4318 4.86588 22.3543 4.47591C22.2767 4.08595 22.1042 3.72113 21.852 3.41378C21.5998 3.10643 21.2756 2.86604 20.9083 2.71391C20.541 2.56178 20.1418 2.5026 19.7461 2.54164C19.3504 2.58067 18.9705 2.7167 18.64 2.93767C18.3094 3.15864 18.0385 3.45773 17.8512 3.80843C17.6639 4.15914 17.566 4.55064 17.5661 4.94824V17.0206C17.5485 17.3485 17.5979 17.6765 17.7113 17.9847C17.8247 18.2928 17.9996 18.5747 18.2255 18.813C18.4513 19.0513 18.7234 19.2411 19.025 19.3708C19.3267 19.5005 19.6516 19.5674 19.9799 19.5674C20.3083 19.5674 20.6332 19.5005 20.9348 19.3708C21.2365 19.2411 21.5085 19.0513 21.7344 18.813C21.9603 18.5747 22.1352 18.2928 22.2486 17.9847C22.3619 17.6765 22.4113 17.3485 22.3937 17.0206H24.811C24.893 17.7032 24.8293 18.3954 24.6242 19.0516C24.4191 19.7078 24.0771 20.313 23.6209 20.8273C23.1647 21.3416 22.6046 21.7533 21.9776 22.0353C21.3506 22.3172 20.6709 22.463 19.9834 22.463C19.2959 22.463 18.6162 22.3172 17.9892 22.0353C17.3622 21.7533 16.8021 21.3416 16.3459 20.8273C15.8897 20.313 15.5477 19.7078 15.3426 19.0516C15.1375 18.3954 15.0738 17.7032 15.1558 17.0206V4.94824C15.1423 4.14165 15.3298 3.34437 15.7012 2.62826C16.0726 1.91215 16.6164 1.29971 17.2835 0.84612C17.9506 0.39253 18.7201 0.112049 19.5226 0.0299469C20.3251 -0.052155 21.1354 0.0667021 21.8806 0.375812C22.6257 0.684922 23.2822 1.17457 23.7909 1.80063C24.2997 2.42669 24.6447 3.1695 24.7948 3.96211C24.9449 4.75472 24.8955 5.57223 24.6509 6.34097C24.4064 7.10971 23.9744 7.80554 23.394 8.36573C23.0455 8.71508 22.6448 9.00801 22.2062 9.234L20.7336 7.24741Z" fill="#222222"/>
<path fill-rule="evenodd" clip-rule="evenodd" d="M32.0557 0.120676V10.9844C32.0515 11.6236 32.3014 12.2382 32.7503 12.6932C32.9739 12.9159 33.2394 13.092 33.5315 13.2112C33.8237 13.3305 34.1366 13.3905 34.4521 13.3878C35.0932 13.3878 35.7081 13.1331 36.1614 12.6798C36.6147 12.2265 36.8694 11.6116 36.8694 10.9705V0.120676H39.2797V10.9844C39.3617 11.667 39.2981 12.3592 39.0929 13.0154C38.8878 13.6716 38.5458 14.2768 38.0896 14.7911C37.6334 15.3054 37.0733 15.7171 36.4463 15.9991C35.8193 16.281 35.1396 16.4268 34.4521 16.4268C33.7646 16.4268 33.085 16.281 32.458 15.9991C31.8309 15.7171 31.2709 15.3054 30.8146 14.7911C30.3584 14.2768 30.0165 13.6716 29.8113 13.0154C29.6062 12.3592 29.5426 11.667 29.6246 10.9844V0.120676H32.0557Z" fill="#222222"/>
<path fill-rule="evenodd" clip-rule="evenodd" d="M44.1416 21.8481V4.94819C44.1407 4.31429 44.265 3.68646 44.5074 3.10073C44.7497 2.51499 45.1054 1.9829 45.5539 1.53499C46.0025 1.08708 46.5351 0.732171 47.1212 0.490646C47.7073 0.249121 48.3353 0.125738 48.9692 0.127568C50.0858 0.127885 51.1678 0.515266 52.0308 1.22374C52.8939 1.93222 53.4847 2.91799 53.7026 4.01314C53.9205 5.10829 53.752 6.2451 53.2258 7.22997C52.6996 8.21485 51.8483 8.98686 50.8168 9.41455L49.2817 7.33071C49.8089 7.25931 50.2975 7.01501 50.671 6.63609C51.0088 6.29804 51.2389 5.86742 51.3321 5.39865C51.4253 4.92989 51.3774 4.44401 51.1945 4.00244C51.0116 3.56087 50.702 3.18342 50.3046 2.9178C49.9073 2.65217 49.4402 2.51029 48.9622 2.51009C48.6448 2.51009 48.3305 2.57262 48.0372 2.6941C47.7439 2.81557 47.4774 2.99362 47.253 3.21809C47.0285 3.44255 46.8504 3.70903 46.729 4.0023C46.6075 4.29558 46.545 4.60991 46.545 4.92735V21.8273L44.1416 21.8481Z" fill="#222222"/>
<path d="M50.1648 13.3947H42.9199V15.812H50.1648V13.3947Z" fill="#222222"/>
<path d="M35.6741 14.3533H33.2568V21.8482H35.6741V14.3533Z" fill="#222222"/>
<path d="M61.0276 6.15689H58.6104V21.8482H61.0276V6.15689Z" fill="#222222"/>
<path fill-rule="evenodd" clip-rule="evenodd" d="M73.1007 17.0206V4.94821C73.1007 4.30711 72.8461 3.69227 72.3927 3.23894C71.9394 2.78562 71.3246 2.53094 70.6835 2.53094C70.3664 2.53094 70.0524 2.59352 69.7595 2.71508C69.4666 2.83664 69.2006 3.01481 68.9767 3.23937C68.7528 3.46392 68.5754 3.73045 68.4546 4.02368C68.3339 4.31691 68.2722 4.6311 68.2732 4.94821V17.0206C68.2556 17.3485 68.305 17.6765 68.4183 17.9846C68.5317 18.2928 68.7066 18.5746 68.9325 18.813C69.1584 19.0513 69.4304 19.2411 69.7321 19.3708C70.0337 19.5005 70.3586 19.5674 70.6869 19.5674C71.0153 19.5674 71.3402 19.5005 71.6418 19.3708C71.9435 19.2411 72.2155 19.0513 72.4414 18.813C72.6673 18.5746 72.8422 18.2928 72.9556 17.9846C73.0689 17.6765 73.1183 17.3485 73.1007 17.0206ZM75.511 4.94821V17.0206C75.5357 17.6695 75.4291 18.3167 75.1978 18.9235C74.9664 19.5303 74.6151 20.0841 74.1647 20.5519C73.7143 21.0197 73.1742 21.3919 72.5766 21.646C71.979 21.9002 71.3363 22.0312 70.6869 22.0312C70.0376 22.0312 69.3949 21.9002 68.7973 21.646C68.1997 21.3919 67.6596 21.0197 67.2092 20.5519C66.7588 20.0841 66.4074 19.5303 66.1761 18.9235C65.9448 18.3167 65.8382 17.6695 65.8628 17.0206V4.94821C65.8583 4.31133 65.9798 3.67982 66.2203 3.0901C66.4609 2.50038 66.8157 1.9641 67.2645 1.51213C67.7132 1.06016 68.2469 0.701451 68.8349 0.456674C69.4229 0.211897 70.0535 0.0858953 70.6904 0.0859118C71.3267 0.0813334 71.9576 0.202593 72.5469 0.442715C73.1362 0.682838 73.6722 1.03708 74.124 1.48508C74.5759 1.93308 74.9348 2.466 75.1799 3.05318C75.4251 3.64035 75.5518 4.27022 75.5527 4.90653" fill="#222222"/>
<path d="M82.7552 0.120676H80.3379V21.8482H82.7552V0.120676Z" fill="#222222"/>
<path d="M89.9993 0.120676H87.582V21.8482H89.9993V0.120676Z" fill="#222222"/>
<path fill-rule="evenodd" clip-rule="evenodd" d="M58.6103 0.120676C58.6096 0.279483 58.6406 0.436834 58.7014 0.583533C58.7622 0.730231 58.8517 0.863329 58.9645 0.975048C59.1323 1.15132 59.3495 1.27282 59.5875 1.32366C59.8255 1.3745 60.0733 1.35231 60.2984 1.25999C60.5236 1.16767 60.7157 1.00951 60.8495 0.806227C60.9833 0.602945 61.0526 0.364009 61.0484 0.120676H63.4587C63.4178 1.05396 63.0183 1.93545 62.3434 2.58139C61.6686 3.22734 60.7704 3.58789 59.8363 3.58789C58.9021 3.58789 58.004 3.22734 57.3291 2.58139C56.6543 1.93545 56.2547 1.05396 56.2139 0.120676H58.6103Z" fill="#222222"/>
<path fill-rule="evenodd" clip-rule="evenodd" d="M82.7552 6.71955C82.7552 8.25464 84.2555 9.09512 85.7559 9.9356C87.8397 11.1164 90 12.3042 90 15.2494H87.5827C87.5827 13.7143 86.0824 12.8738 84.582 12.0333C82.4565 10.8525 80.3379 9.66471 80.3379 6.71955H82.7552Z" fill="#222222"/>
<path fill-rule="evenodd" clip-rule="evenodd" d="M58.6103 0.120676C58.6096 0.279483 58.6406 0.436834 58.7014 0.583533C58.7622 0.730231 58.8517 0.863329 58.9645 0.975048C59.1323 1.15132 59.3495 1.27282 59.5875 1.32366C59.8255 1.3745 60.0733 1.35231 60.2984 1.25999C60.5236 1.16767 60.7157 1.00951 60.8495 0.806227C60.9833 0.602945 61.0526 0.364009 61.0484 0.120676H63.4587C63.4178 1.05396 63.0183 1.93545 62.3434 2.58139C61.6686 3.22734 60.7704 3.58789 59.8363 3.58789C58.9021 3.58789 58.004 3.22734 57.3291 2.58139C56.6543 1.93545 56.2547 1.05396 56.2139 0.120676H58.6103Z" fill="#222222"/>
</svg>
