<svg width="34" height="25" viewBox="0 0 34 25" fill="none" xmlns="http://www.w3.org/2000/svg">
<path opacity="0.9" d="M8.33149 24.1654C6.94566 24.1654 5.73306 23.9055 4.69369 23.3858C3.65432 22.8084 2.81705 22.0578 2.18188 21.1339C1.60445 20.21 1.14251 19.1129 0.796052 17.8425C0.449595 16.5722 0.276367 15.2441 0.276367 13.8583C0.276367 11.0289 0.998152 8.37271 2.44172 5.88977C3.94303 3.40683 6.25275 1.44357 9.37086 0L10.1504 1.55906C8.53359 2.30971 7.09002 3.40683 5.81967 4.8504C4.60708 6.23623 3.88529 7.70867 3.65432 9.26772C3.30786 10.4803 3.27899 11.664 3.56771 12.8189C4.83805 11.4331 6.54146 10.7402 8.67794 10.7402C10.6412 10.7402 12.258 11.3465 13.5283 12.5591C14.7987 13.7139 15.4338 15.3307 15.4338 17.4095C15.4338 19.4305 14.7698 21.0761 13.4417 22.3465C12.1136 23.5591 10.4102 24.1654 8.33149 24.1654ZM26.174 24.1654C24.7882 24.1654 23.5756 23.9055 22.5362 23.3858C21.4968 22.8084 20.6596 22.0578 20.0244 21.1339C19.447 20.21 18.985 19.1129 18.6386 17.8425C18.2921 16.5722 18.1189 15.2441 18.1189 13.8583C18.1189 11.0289 18.8407 8.37271 20.2842 5.88977C21.7856 3.40683 24.0953 1.44357 27.2134 0L27.9929 1.55906C26.3761 2.30971 24.9325 3.40683 23.6622 4.8504C22.4496 6.23623 21.7278 7.70867 21.4968 9.26772C21.1504 10.4803 21.1215 11.664 21.4102 12.8189C22.6806 11.4331 24.384 10.7402 26.5205 10.7402C28.4837 10.7402 30.1005 11.3465 31.3709 12.5591C32.6412 13.7139 33.2764 15.3307 33.2764 17.4095C33.2764 19.4305 32.6123 21.0761 31.2842 22.3465C29.9562 23.5591 28.2527 24.1654 26.174 24.1654Z" fill="#222222"/>
</svg>
