<svg width="78" height="60" viewBox="0 0 78 60" fill="none" xmlns="http://www.w3.org/2000/svg">
<g filter="url(#filter0_d_252_783)">
<path d="M66.6948 15.2889C66.3655 14.0825 65.7218 12.9823 64.8279 12.0978C63.9341 11.2134 62.8211 10.5754 61.5999 10.2475C57.0717 9.02 38.9561 9.00002 38.9561 9.00002C38.9561 9.00002 20.8434 8.98004 16.3123 10.1533C15.0918 10.4963 13.9812 11.1433 13.0869 12.0321C12.1927 12.9209 11.5449 14.0218 11.2058 15.229C10.0116 19.6994 10 28.9715 10 28.9715C10 28.9715 9.98844 38.2892 11.174 42.7139C11.839 45.1604 13.7908 47.093 16.2718 47.7525C20.8462 48.98 38.9127 49 38.9127 49C38.9127 49 57.0283 49.02 61.5565 47.8495C62.7782 47.5222 63.8922 46.8858 64.7883 46.0031C65.6844 45.1204 66.3316 44.0221 66.6659 42.8167C67.863 38.3491 67.8717 29.0799 67.8717 29.0799C67.8717 29.0799 67.9295 19.7594 66.6948 15.2889Z" fill="#FF0000"/>
</g>
<path d="M33.1756 20.4331L33.1611 37.5613L48.2319 29.0115L33.1756 20.4331Z" fill="#E6E8EA"/>
<defs>
<filter id="filter0_d_252_783" x="0" y="0" width="77.8721" height="60" filterUnits="userSpaceOnUse" color-interpolation-filters="sRGB">
<feFlood flood-opacity="0" result="BackgroundImageFix"/>
<feColorMatrix in="SourceAlpha" type="matrix" values="0 0 0 0 0 0 0 0 0 0 0 0 0 0 0 0 0 0 127 0" result="hardAlpha"/>
<feOffset dy="1"/>
<feGaussianBlur stdDeviation="5"/>
<feColorMatrix type="matrix" values="0 0 0 0 0 0 0 0 0 0 0 0 0 0 0 0 0 0 0.25 0"/>
<feBlend mode="normal" in2="BackgroundImageFix" result="effect1_dropShadow_252_783"/>
<feBlend mode="normal" in="SourceGraphic" in2="effect1_dropShadow_252_783" result="shape"/>
</filter>
</defs>
</svg>
