<svg width="168" height="176" viewBox="0 0 168 176" fill="none" xmlns="http://www.w3.org/2000/svg">
<path d="M53.745 155.084C59.387 156.873 64.8264 159.272 70.5475 160.853C75.4222 162.2 78.7446 160.781 80.512 157.336C83.1616 152.168 85.2744 146.758 87.1307 141.255C87.8412 139.15 88.7001 137.1 89.4285 135C91.5085 129.014 93.6196 123.041 95.9721 117.158C96.6425 115.484 97.2358 113.766 97.8799 112.076C99.7579 107.159 101.735 102.28 103.537 97.3328C105.986 90.607 108.587 83.9415 111.159 77.2648C112.269 74.3845 113.103 71.4427 111.792 68.0615C111.077 66.2201 109.951 64.6405 108.382 63.3254C104.95 60.4543 104.171 58.3707 105.291 55.0458C106.5 51.4539 107.071 52.8279 108.678 49.3913C109.74 47.116 110.725 41.7451 111.662 39.4171C112.368 37.6614 113.987 33.0433 114.603 31.2518C114.734 30.8712 114.784 30.4503 115.424 30.3726C117.248 30.1509 117.469 28.8931 117.333 27.5676C117.215 26.4408 117.019 25.3409 117.498 24.3049C117.905 23.4259 117.081 22.6984 116.348 22.2935C112.741 20.3005 109.019 18.5324 104.906 17.8647C103.652 17.6621 102.685 17.8946 102.404 19.1209C102.273 19.7003 101.785 20.1491 101.132 20.4954C100.471 20.8463 100.037 21.4866 99.7506 22.177C99.4327 22.9375 99.3298 23.592 100.182 24.3707C100.735 24.8766 100.118 25.3802 99.9266 25.8299C99.2777 27.3428 97.334 31.5696 96.7593 33.1093C95.1885 37.3089 93.1977 38.4298 91.6382 42.6339C90.7631 44.9887 91.2775 47.5742 90.1176 49.8081C88.8102 52.3234 86.3231 53.24 83.087 53.1166C80.4995 53.0194 78.1346 53.4219 76.1446 54.6233C74.0848 55.8687 72.7193 57.6257 71.854 59.6845C70.1051 63.8559 68.5151 68.0957 66.6714 72.2269C64.9252 76.1366 63.5229 80.1827 61.8208 84.1047C59.1167 90.3311 56.5846 96.6258 54.0271 102.91C52.2113 107.366 50.2593 111.77 48.2894 116.162C46.9235 119.203 45.6666 122.29 44.3072 125.332C43.0782 128.077 41.9892 130.872 40.8973 133.667C40.0146 135.926 39.0148 138.175 38.5356 140.552C37.5851 145.26 38.8305 147.861 44.8121 150.892C47.1208 152.062 49.5177 153.002 51.9157 153.964C52.4936 154.193 53.1221 154.352 53.517 154.861" stroke="#222222" stroke-width="2" stroke-linecap="round" stroke-linejoin="round"/>
<path d="M110.636 41.4892C110.089 42.6448 108.985 40.8345 106.589 39.8845L99.7921 37.1891C97.3411 36.2171 94.6062 36.1797 95.0876 34.9657L102.249 18.5343C102.761 17.2443 104.771 17.0632 107.32 18.2053L115.041 21.6633C117.346 22.6959 118.729 24.3922 118.191 25.5281L110.636 41.4892Z" fill="#222222"/>
</svg>
