<svg width="60" height="4" viewBox="0 0 60 4" fill="none" xmlns="http://www.w3.org/2000/svg">
<path d="M2.21744 0.498198C1.40751 0.635811 0.753096 0.747897 0.0317239 0.870615C-0.0939071 1.10967 0.244741 1.31297 0.691366 1.50571C0.613577 1.53996 0.550916 1.56708 0.468806 1.60276C0.64364 1.63744 0.827115 1.67428 1.06023 1.72124C1.66278 1.63629 2.30421 1.54567 3.11841 1.43099C4.92131 1.43832 6.98783 1.32431 8.78 1.29652C10.285 1.23673 11.8225 1.16553 13.3167 1.11288C13.6924 1.1307 14.0249 1.14702 14.3595 1.16263C15.1803 1.01429 16.6506 1.08123 17.7192 1.15037L15.9422 1.14738C15.4842 1.30421 15.0026 1.38005 14.3549 1.38254C11.5284 1.42364 8.66763 1.35149 5.87556 1.50368L5.87513 1.75727C6.07141 1.88153 6.27415 2.00939 6.50494 2.1552C6.45308 2.18233 6.38176 2.21946 6.26723 2.27873C6.34485 2.33904 6.44836 2.41801 6.57128 2.51134C9.11682 2.58511 11.5744 2.31273 14.1286 2.37863C14.3575 2.37758 14.5842 2.35504 14.865 2.33903C16.469 2.46781 18.3801 2.34709 20.0707 2.39077C19.3968 2.52933 18.6283 2.43562 17.8919 2.45874C17.2547 2.6167 16.4428 2.6225 15.7325 2.62489C15.385 2.54766 15.1472 2.71274 14.7716 2.67485C14.4909 2.64644 14.1368 2.6437 13.8948 2.73857C13.2234 2.70592 12.5863 2.79439 11.932 2.80189C9.65401 2.85035 7.54612 3.16631 5.32627 3.29797C5.11463 3.32197 4.91808 3.36032 4.76042 3.38441C4.86166 3.52643 4.94137 3.63545 5.04907 3.78678C5.21736 3.86587 5.54113 3.92587 5.97506 3.966C6.91199 4.05497 7.84087 3.80007 8.74954 4.00433C8.85753 3.9866 8.97634 3.9517 9.09726 3.94976C11.82 3.94502 14.5191 3.84282 17.2311 3.81801C17.8164 3.69936 18.4641 3.76636 19.0838 3.74734C19.2436 3.74259 19.3969 3.71348 19.5675 3.69371C20.1741 3.77998 21.0982 3.80804 21.731 3.6823C22.0677 3.75952 22.4134 3.65981 22.7372 3.68758C23.4715 3.6007 24.2571 3.81621 24.9505 3.61895C25.0239 3.64056 25.0972 3.66218 25.19 3.69027C25.2441 3.64165 25.2874 3.60017 25.3652 3.52938C25.4493 3.59328 25.5054 3.63636 25.5614 3.67943C25.9263 3.67861 26.2589 3.64765 26.7944 3.62133C29.4415 3.69384 32.3222 3.47231 34.8611 3.62845C35.0923 3.53499 35.3147 3.54396 35.5455 3.63246C35.5758 3.64469 35.6967 3.64275 35.7528 3.63281C38.0848 3.57441 40.5224 3.6702 42.9148 3.64987C43.4157 3.65931 43.9079 3.7067 44.5147 3.67405C44.3787 3.66379 44.2427 3.65354 44.1067 3.64256C44.1499 3.62043 44.1931 3.59829 44.2363 3.57616L42.129 3.57261L42.1204 3.52317C42.2997 3.51344 42.4767 3.50371 42.6603 3.49327C42.7534 3.32294 43.1443 3.27201 43.6151 3.23914C43.112 3.21752 42.609 3.1959 41.9289 3.16681C41.9202 3.16823 41.7194 3.19297 41.5207 3.21842C41.5013 3.20621 41.484 3.194 41.4646 3.18108C41.5532 3.14899 41.6418 3.11762 41.7714 3.07056C43.1684 3.07649 44.6518 3.0403 46.0529 3.14509C46.2991 3.15052 46.636 3.07301 46.785 3.10621C47.0677 3.16829 47.3355 3.15656 47.5989 3.14769C50.6084 3.36766 54.0181 3.18213 56.8999 3.58599L59.9508 3.59112C60.1412 3.35576 59.714 3.17881 59.9412 2.89408C59.3456 2.67602 59.6917 2.31913 59.6015 2.02742C58.4963 1.85149 57.3347 1.83664 56.2013 1.70149C55.4952 1.71893 54.8824 1.52376 54.2214 1.65733C52.0669 1.47891 49.7719 1.36688 47.5134 1.36093C46.1058 1.24323 44.698 1.23227 43.2276 1.22048C41.034 1.16522 38.8187 1.14501 36.6272 1.12629C33.8939 0.979133 31.143 1.0791 28.403 1.04154C28.3771 1.04149 28.3534 1.02498 28.2714 0.996184C28.401 0.982791 28.5392 0.96798 28.6752 0.953881C29.7549 0.928475 30.9555 0.848111 32.2314 0.96201C34.0282 0.747972 36.1026 1.0903 37.923 0.931464C38.1798 1.00425 38.5685 0.995589 38.8924 0.988254C41.2805 0.937826 43.6489 1.09654 46.0348 1.07548C46.2227 1.07365 46.4148 1.11122 46.663 1.136C47.0734 1.07866 47.4945 1.03782 48.0557 1.13118C48.4594 1.19848 49.0403 1.14573 49.5606 1.1466C49.675 1.18977 49.7937 1.23439 49.8908 1.2718C51.9375 1.39989 54.0125 1.33748 55.8928 1.53979C56.1953 1.45362 56.407 1.39308 56.6446 1.32543C56.5389 1.27295 56.4655 1.23629 56.3835 1.19532C56.4354 1.17607 56.5024 1.15111 56.5737 1.12544C56.524 1.11031 56.4722 1.09447 56.4226 1.07862C56.5308 0.930516 56.2396 0.789619 56.3801 0.65088C56.1212 0.547288 55.8839 0.451612 55.5235 0.307733C54.1526 0.192242 52.2526 0.155378 50.7542 0.152142C50.562 0.154684 50.3741 0.182307 50.2186 0.19494C49.7307 0.159734 49.2449 0.123815 48.6923 0.0842019C48.6642 0.0920347 48.5843 0.112675 48.5389 0.124777C48.0747 0.106804 47.6408 0.0795684 47.2068 0.0745404C44.6633 0.0330126 42.1692 0.193583 39.6323 0.128426C37.8704 0.139074 36.1063 0.132526 34.3423 0.119531C32.0559 0.0168279 29.8469 0.149939 27.5562 0.0400653C27.2126 0.171299 26.7528 0.10462 26.3491 0.10609C24.531 0.141717 22.6699 0.0397292 20.8885 0.13989C18.6319 0.243551 16.1385 -0.0128026 13.9336 0.234218C13.5773 0.237917 13.2665 0.195845 12.9362 0.168784C12.6404 0.144647 12.2862 0.212822 11.9515 0.225871C11.7917 0.232049 11.6212 0.205973 11.4549 0.194948C10.5093 0.146794 9.4253 0.187237 8.53555 0.287465C8.46426 0.311702 8.26133 0.292735 8.11882 0.294644C6.14109 0.245471 4.17567 0.581724 2.21096 0.49962L2.21744 0.498198ZM41.8874 3.42034C41.8961 3.38597 41.907 3.343 41.9157 3.30147L42.5418 3.30252C42.5288 3.34906 42.5201 3.38057 42.5093 3.42138C42.2912 3.42102 42.0925 3.42068 41.8873 3.46475C41.5784 3.57384 41.2634 3.4372 40.9525 3.42736C40.65 3.52858 40.3262 3.52374 39.9463 3.45576C40.1125 3.43311 40.2378 3.41542 40.3652 3.39772C39.48 3.35683 38.5474 3.28363 37.7353 3.40548C36.1962 3.18869 34.4575 3.50312 32.9615 3.34444C32.9054 3.33431 32.7909 3.33269 32.7521 3.34409C32.2228 3.50366 31.7955 3.39119 31.1544 3.26833C33.4108 3.2492 35.4943 3.3136 37.5111 3.22601C38.7049 3.32902 39.7954 3.26638 40.9959 3.2856C41.0607 3.2857 41.1254 3.29656 41.0175 3.28706C41.3909 3.36291 41.6175 3.40986 41.8874 3.42034ZM40.9919 3.08214C39.2882 3.16524 37.3838 3.15058 36.6326 3.07481L40.9919 3.08214ZM27.5049 1.0171L23.3592 1.01013C23.3636 1.00154 23.3658 0.993666 23.3809 0.963604C24.534 0.929725 25.8055 1.05508 26.894 0.911486C27.0559 0.939696 27.2329 0.970081 27.507 1.01711L27.5049 1.0171ZM31.1976 3.28488C30.9535 3.34894 30.8001 3.3888 30.5992 3.44147C30.4589 3.3825 30.3575 3.33934 30.2238 3.28324L31.1954 3.28488L31.1976 3.28488ZM16.1595 2.89783C15.7535 2.94228 15.3367 2.98384 14.9396 2.89578L16.1595 2.89783ZM30.4918 3.11176C30.4918 3.09099 30.4919 3.07022 30.4897 3.05015C30.7553 3.05633 31.023 3.06323 31.2886 3.06941C31.2864 3.08373 31.2842 3.09877 31.282 3.11309L30.4939 3.11177L30.4918 3.11176ZM17.7121 2.83453L17.712 2.87035L17.2802 2.86962L17.2803 2.83381L17.7121 2.83453ZM14.2162 2.9662C14.2118 2.98696 14.2075 3.00702 14.2031 3.02778C14.0822 3.01898 13.9635 3.01019 13.8426 3.00139C13.8469 2.98993 13.8512 2.97776 13.8577 2.96631L14.2162 2.96691L14.2162 2.9662ZM33.4391 3.07016C33.4305 3.09092 33.424 3.11168 33.4153 3.13172C33.2987 3.12222 33.1821 3.11271 33.0634 3.10319C33.0699 3.09174 33.0742 3.08029 33.0807 3.06884L33.4391 3.06944L33.4391 3.07016ZM39.5187 3.45002L39.5187 3.47366L39.3028 3.4733L39.3028 3.44966L39.5187 3.45002ZM34.5533 3.08349L34.5532 3.10713L34.3373 3.10677L34.3373 3.08313L34.5533 3.08349ZM35.92 3.06215L35.9913 3.06227L35.9912 3.13391L35.9199 3.13379L35.92 3.06215ZM18.4312 2.7462L18.5025 2.74632L18.5024 2.81795L18.4311 2.81783L18.4312 2.7462ZM21.8147 2.70389L21.8147 2.72753L21.5988 2.72717L21.5988 2.70353L21.8147 2.70389ZM25.1249 2.61418L25.1962 2.6143L25.196 2.68593L25.1248 2.68582L25.1249 2.61418ZM30.3783 2.55138L30.307 2.55126L30.3072 2.47962L30.3784 2.47974L30.3783 2.55138ZM2.60037 1.33413L2.60041 1.31049L2.81633 1.31085L2.81629 1.33449L2.60037 1.33413Z" fill="#222222"/>
</svg>
