<svg width="60" height="5" viewBox="0 0 60 5" fill="none" xmlns="http://www.w3.org/2000/svg">
<path d="M57.7894 1.26639C58.5993 1.404 59.2537 1.51609 59.9751 1.6388C60.1007 1.87786 59.7621 2.08116 59.3155 2.2739C59.3933 2.30815 59.4559 2.33527 59.538 2.37095C59.3632 2.40563 59.1797 2.44247 58.9466 2.48943C58.3441 2.40448 57.7026 2.31386 56.8884 2.19918C55.0855 2.20651 53.019 2.0925 51.2268 2.06471C49.7218 2.00491 48.1843 1.93371 46.6901 1.88107C46.3144 1.89889 45.9819 1.91521 45.6473 1.93082C44.8266 1.78248 43.3563 1.84942 42.2876 1.91856L44.0646 1.91557C44.5226 2.0724 45.0042 2.14824 45.652 2.15073C48.4784 2.19183 51.3392 2.11968 54.1313 2.27187L54.1317 2.52546C53.9354 2.64972 53.7327 2.77758 53.5019 2.92339C53.5538 2.95052 53.6251 2.98765 53.7396 3.04692C53.662 3.10722 53.5585 3.1862 53.4356 3.27953C50.89 3.3533 48.4324 3.08092 45.8782 3.14682C45.6493 3.14577 45.4226 3.12323 45.1419 3.10722C43.5378 3.236 41.6267 3.11528 39.9362 3.15896C40.6101 3.29752 41.3786 3.20381 42.1149 3.22693C42.7521 3.38489 43.564 3.39069 44.2744 3.39308C44.6219 3.31584 44.8596 3.48092 45.2353 3.44304C45.5159 3.41463 45.87 3.41189 46.112 3.50676C46.7835 3.47411 47.4206 3.56258 48.0748 3.57008C50.3528 3.61854 52.4607 3.9345 54.6806 4.06616C54.8922 4.09016 55.0888 4.12851 55.2464 4.1526C55.1452 4.29461 55.0655 4.40364 54.9578 4.55497C54.7895 4.63405 54.4657 4.69406 54.0318 4.73419C53.0948 4.82316 52.166 4.56826 51.2573 4.77252C51.1493 4.75479 51.0305 4.71989 50.9096 4.71794C48.1868 4.71321 45.4877 4.61101 42.7757 4.5862C42.1904 4.46755 41.5428 4.53455 40.923 4.51553C40.7633 4.51078 40.6099 4.48167 40.4393 4.4619C39.8327 4.54817 38.9086 4.57623 38.2758 4.45049C37.9391 4.52771 37.5934 4.428 37.2696 4.45577C36.5354 4.36889 35.7498 4.5844 35.0563 4.38714C34.983 4.40875 34.9096 4.43036 34.8168 4.45846C34.7627 4.40984 34.7195 4.36836 34.6416 4.29757C34.5575 4.36147 34.5015 4.40455 34.4454 4.44762C34.0805 4.4468 33.7479 4.41584 33.2124 4.38952C30.5654 4.46203 27.6847 4.2405 25.1457 4.39664C24.9146 4.30318 24.6922 4.31215 24.4613 4.40065C24.4311 4.41288 24.3102 4.41094 24.254 4.401C21.922 4.3426 19.4844 4.43839 17.092 4.41806C16.5911 4.4275 16.0989 4.47489 15.4921 4.44224C15.6281 4.43198 15.7642 4.42172 15.9002 4.41075C15.8569 4.38862 15.8137 4.36648 15.7705 4.34435L17.8779 4.3408L17.8864 4.29136C17.7072 4.28163 17.5301 4.2719 17.3466 4.26146C17.2534 4.09112 16.8625 4.0402 16.3918 4.00733C16.8948 3.98571 17.3979 3.96408 18.078 3.935C18.0866 3.93642 18.2875 3.96116 18.4861 3.98661C18.5056 3.9744 18.5228 3.96219 18.5422 3.94927C18.4536 3.91718 18.3651 3.88581 18.2354 3.83874C16.8385 3.84468 15.355 3.80849 13.9539 3.91328C13.7078 3.91871 13.3708 3.84119 13.2219 3.8744C12.9391 3.93648 12.6714 3.92475 12.4079 3.91588C9.39842 4.13585 5.98877 3.95032 3.10695 4.35418L0.0560388 4.35931C-0.134365 4.12394 0.292855 3.947 0.0656626 3.66227C0.661229 3.44421 0.31516 3.08732 0.405355 2.79561C1.51056 2.61967 2.67217 2.60483 3.80551 2.46968C4.51159 2.48712 5.12447 2.29195 5.7854 2.42551C7.93996 2.2471 10.235 2.13507 12.4935 2.12912C13.9011 2.01142 15.3088 2.00046 16.7792 1.98867C18.9728 1.9334 21.1881 1.9132 23.3796 1.89447C26.1129 1.74732 28.8639 1.84728 31.6038 1.80972C31.6297 1.80968 31.6534 1.79317 31.7354 1.76437C31.6059 1.75098 31.4677 1.73617 31.3316 1.72207C30.252 1.69666 29.0513 1.6163 27.7755 1.7302C25.9787 1.51616 23.9043 1.85849 22.0838 1.69965C21.827 1.77244 21.4383 1.76378 21.1144 1.75644C18.7263 1.70601 16.3579 1.86473 13.972 1.84367C13.7842 1.84184 13.5921 1.87941 13.3438 1.90419C12.9335 1.84685 12.5124 1.80601 11.9511 1.89936C11.5475 1.96666 10.9666 1.91391 10.4462 1.91479C10.3318 1.95796 10.2132 2.00258 10.1161 2.03999C8.06938 2.16808 5.9943 2.10566 4.114 2.30798C3.81157 2.2218 3.59987 2.16127 3.36225 2.09361C3.46796 2.04114 3.54131 2.00448 3.62329 1.96351C3.57144 1.94426 3.50446 1.9193 3.43316 1.89363C3.4828 1.8785 3.53459 1.86265 3.58423 1.84681C3.47602 1.6987 3.76727 1.55781 3.62669 1.41907C3.88562 1.31548 4.12297 1.2198 4.48331 1.07592C5.85419 0.960431 7.75421 0.923566 9.25267 0.92033C9.44484 0.922873 9.63274 0.950495 9.78822 0.963128C10.2761 0.927922 10.7619 0.892004 11.3146 0.85239C11.3427 0.860223 11.4226 0.880863 11.4679 0.892965C11.9321 0.874992 12.3661 0.847757 12.8001 0.842729C15.3435 0.801201 17.8376 0.961771 20.3745 0.896614C22.1365 0.907263 23.9005 0.900715 25.6645 0.887719C27.9509 0.785016 30.16 0.918128 32.4507 0.808254C32.7942 0.939488 33.254 0.872809 33.6578 0.874279C35.4759 0.909906 37.3369 0.807918 39.1184 0.908079C41.3749 1.01174 43.8683 0.755386 46.0733 1.00241C46.4295 1.00611 46.7404 0.964034 47.0707 0.936973C47.3665 0.912835 47.7207 0.981011 48.0554 0.994059C48.2152 1.00024 48.3857 0.974162 48.5519 0.963137C49.4976 0.914983 50.5815 0.955426 51.4713 1.05565C51.5426 1.07989 51.7455 1.06092 51.888 1.06283C53.8657 1.01366 55.8312 1.34991 57.7959 1.26781L57.7894 1.26639ZM18.1194 4.18853C18.1107 4.15416 18.0999 4.11119 18.0912 4.06966L17.465 4.07071C17.478 4.11725 17.4867 4.14876 17.4976 4.18957C17.7157 4.18921 17.9143 4.18887 18.1195 4.23294C18.4284 4.34203 18.7435 4.20539 19.0544 4.19555C19.3568 4.29677 19.6807 4.29192 20.0606 4.22395C19.8943 4.2013 19.769 4.1836 19.6416 4.16591C20.5268 4.12502 21.4594 4.05182 22.2715 4.17366C23.8106 3.95688 25.5493 4.27131 27.0453 4.11263C27.1015 4.1025 27.2159 4.10088 27.2548 4.11227C27.784 4.27185 28.2114 4.15938 28.8524 4.03652C26.5961 4.01739 24.5126 4.08178 22.4958 3.9942C21.3019 4.09721 20.2114 4.03457 19.0109 4.05378C18.9462 4.05389 18.8814 4.06475 18.9894 4.05525C18.6159 4.1311 18.3893 4.17804 18.1194 4.18853ZM19.0149 3.85033C20.7186 3.93343 22.623 3.91876 23.3743 3.843L19.0149 3.85033ZM32.502 1.78529L36.6476 1.77832C36.6433 1.76973 36.6411 1.76185 36.6259 1.73179C35.4729 1.69791 34.2013 1.82327 33.1129 1.67967C32.951 1.70788 32.774 1.73827 32.4998 1.78529L32.502 1.78529ZM28.8093 4.05307C29.0534 4.11713 29.2067 4.15699 29.4076 4.20966C29.5479 4.15068 29.6493 4.10753 29.7831 4.05143L28.8114 4.05306L28.8093 4.05307ZM43.8473 3.66602C44.2533 3.71046 44.6701 3.75203 45.0672 3.66397L43.8473 3.66602ZM29.515 3.87995C29.515 3.85918 29.515 3.8384 29.5171 3.81834C29.2515 3.82452 28.9838 3.83142 28.7182 3.83759C28.7204 3.85192 28.7226 3.86696 28.7248 3.88128L29.5129 3.87996L29.515 3.87995ZM42.2947 3.60272L42.2948 3.63854L42.7266 3.63781L42.7266 3.602L42.2947 3.60272ZM45.7907 3.73439C45.795 3.75515 45.7994 3.7752 45.8037 3.79597C45.9246 3.78717 46.0434 3.77838 46.1643 3.76958C46.1599 3.75812 46.1556 3.74595 46.1491 3.7345L45.7907 3.7351L45.7907 3.73439ZM26.5677 3.83835C26.5764 3.85911 26.5829 3.87987 26.5916 3.89991C26.7081 3.8904 26.8247 3.88089 26.9434 3.87138C26.937 3.85993 26.9326 3.84848 26.9261 3.83703L26.5677 3.83763L26.5677 3.83835ZM20.4881 4.21821L20.4881 4.24185L20.7041 4.24149L20.704 4.21785L20.4881 4.21821ZM25.4536 3.85168L25.4536 3.87532L25.6695 3.87496L25.6695 3.85132L25.4536 3.85168ZM24.0868 3.83034L24.0155 3.83046L24.0157 3.90209L24.0869 3.90197L24.0868 3.83034ZM41.5756 3.51438L41.5043 3.5145L41.5045 3.58614L41.5757 3.58602L41.5756 3.51438ZM38.1921 3.47208L38.1921 3.49572L38.408 3.49535L38.408 3.47171L38.1921 3.47208ZM34.8819 3.38237L34.8107 3.38249L34.8108 3.45412L34.882 3.454L34.8819 3.38237ZM29.6285 3.31956L29.6998 3.31944L29.6997 3.24781L29.6284 3.24793L29.6285 3.31956ZM57.4065 2.10231L57.4064 2.07867L57.1905 2.07904L57.1905 2.10268L57.4065 2.10231Z" fill="#222222"/>
</svg>
